<svg width="262" height="50" viewBox="0 0 262 50" fill="none" xmlns="http://www.w3.org/2000/svg">
<rect x="113" y="4" width="149" height="46" rx="4" fill="#E0A52E"/>
<path d="M15.88 34.16C15.6133 33.52 15.2533 32.7067 14.8 31.72C14.3733 30.7333 13.9067 29.6667 13.4 28.52C12.8933 27.3733 12.3467 26.2 11.76 25C11.2 23.7733 10.6667 22.6267 10.16 21.56C9.65333 20.4667 9.17333 19.4933 8.72 18.64C8.29333 17.7867 7.94667 17.1333 7.68 16.68C7.38667 19.8267 7.14667 23.24 6.96 26.92C6.77333 30.5733 6.61333 34.2667 6.48 38H2.68C2.78667 35.6 2.90667 33.1867 3.04 30.76C3.17333 28.3067 3.32 25.9067 3.48 23.56C3.66667 21.1867 3.85333 18.88 4.04 16.64C4.25333 14.4 4.48 12.28 4.72 10.28H8.12C8.84 11.4533 9.61333 12.84 10.44 14.44C11.2667 16.04 12.0933 17.72 12.92 19.48C13.7467 21.2133 14.5467 22.96 15.32 24.72C16.0933 26.4533 16.8 28.04 17.44 29.48C18.08 28.04 18.7867 26.4533 19.56 24.72C20.3333 22.96 21.1333 21.2133 21.96 19.48C22.7867 17.72 23.6133 16.04 24.44 14.44C25.2667 12.84 26.04 11.4533 26.76 10.28H30.16C31.0667 19.2133 31.7467 28.4533 32.2 38H28.4C28.2667 34.2667 28.1067 30.5733 27.92 26.92C27.7333 23.24 27.4933 19.8267 27.2 16.68C26.9333 17.1333 26.5733 17.7867 26.12 18.64C25.6933 19.4933 25.2267 20.4667 24.72 21.56C24.2133 22.6267 23.6667 23.7733 23.08 25C22.52 26.2 21.9867 27.3733 21.48 28.52C20.9733 29.6667 20.4933 30.7333 20.04 31.72C19.6133 32.7067 19.2667 33.52 19 34.16H15.88ZM56.4038 27.6C56.4038 29.2533 56.1638 30.7467 55.6838 32.08C55.2038 33.4133 54.5238 34.56 53.6438 35.52C52.7904 36.48 51.7638 37.2267 50.5638 37.76C49.3638 38.2667 48.0571 38.52 46.6438 38.52C45.2304 38.52 43.9238 38.2667 42.7238 37.76C41.5238 37.2267 40.4838 36.48 39.6038 35.52C38.7504 34.56 38.0838 33.4133 37.6038 32.08C37.1238 30.7467 36.8838 29.2533 36.8838 27.6C36.8838 25.9733 37.1238 24.4933 37.6038 23.16C38.0838 21.8 38.7504 20.64 39.6038 19.68C40.4838 18.72 41.5238 17.9867 42.7238 17.48C43.9238 16.9467 45.2304 16.68 46.6438 16.68C48.0571 16.68 49.3638 16.9467 50.5638 17.48C51.7638 17.9867 52.7904 18.72 53.6438 19.68C54.5238 20.64 55.2038 21.8 55.6838 23.16C56.1638 24.4933 56.4038 25.9733 56.4038 27.6ZM52.5238 27.6C52.5238 25.2533 51.9904 23.4 50.9238 22.04C49.8838 20.6533 48.4571 19.96 46.6438 19.96C44.8304 19.96 43.3904 20.6533 42.3238 22.04C41.2838 23.4 40.7638 25.2533 40.7638 27.6C40.7638 29.9467 41.2838 31.8133 42.3238 33.2C43.3904 34.56 44.8304 35.24 46.6438 35.24C48.4571 35.24 49.8838 34.56 50.9238 33.2C51.9904 31.8133 52.5238 29.9467 52.5238 27.6ZM77.3306 17.2C76.2906 21.0933 75.064 24.8267 73.6506 28.4C72.264 31.9733 70.9173 35.1733 69.6106 38H66.2506C64.944 35.1733 63.584 31.9733 62.1706 28.4C60.784 24.8267 59.5706 21.0933 58.5306 17.2H62.5306C62.8506 18.5067 63.224 19.9067 63.6506 21.4C64.104 22.8667 64.5706 24.3333 65.0506 25.8C65.5573 27.24 66.064 28.64 66.5706 30C67.0773 31.36 67.5573 32.5733 68.0106 33.64C68.464 32.5733 68.944 31.36 69.4506 30C69.9573 28.64 70.4506 27.24 70.9306 25.8C71.4373 24.3333 71.904 22.8667 72.3306 21.4C72.784 19.9067 73.1706 18.5067 73.4906 17.2H77.3306ZM84.8888 38H81.1688V17.2H84.8888V38ZM83.0088 13.44C82.3421 13.44 81.7688 13.2267 81.2888 12.8C80.8354 12.3467 80.6087 11.7467 80.6087 11C80.6087 10.2533 80.8354 9.66667 81.2888 9.24C81.7688 8.78666 82.3421 8.56 83.0088 8.56C83.6754 8.56 84.2354 8.78666 84.6888 9.24C85.1688 9.66667 85.4088 10.2533 85.4088 11C85.4088 11.7467 85.1688 12.3467 84.6888 12.8C84.2354 13.2267 83.6754 13.44 83.0088 13.44ZM90.1259 27.64C90.1259 25.8 90.3926 24.2 90.9259 22.84C91.4593 21.4533 92.1659 20.3067 93.0459 19.4C93.9259 18.4933 94.9393 17.8133 96.0859 17.36C97.2326 16.9067 98.4059 16.68 99.6059 16.68C102.406 16.68 104.553 17.56 106.046 19.32C107.539 21.0533 108.286 23.7067 108.286 27.28C108.286 27.44 108.286 27.6533 108.286 27.92C108.286 28.16 108.273 28.3867 108.246 28.6H94.0059C94.1659 30.76 94.7926 32.4 95.8859 33.52C96.9793 34.64 98.6859 35.2 101.006 35.2C102.313 35.2 103.406 35.0933 104.286 34.88C105.193 34.64 105.873 34.4133 106.326 34.2L106.846 37.32C106.393 37.56 105.593 37.8133 104.446 38.08C103.326 38.3467 102.046 38.48 100.606 38.48C98.7926 38.48 97.2193 38.2133 95.8859 37.68C94.5793 37.12 93.4993 36.36 92.6459 35.4C91.7926 34.44 91.1526 33.3067 90.7259 32C90.3259 30.6667 90.1259 29.2133 90.1259 27.64ZM104.406 25.6C104.433 23.92 104.006 22.5467 103.126 21.48C102.273 20.3867 101.086 19.84 99.5659 19.84C98.7126 19.84 97.9526 20.0133 97.2859 20.36C96.6459 20.68 96.0993 21.1067 95.6459 21.64C95.1926 22.1733 94.8326 22.7867 94.5659 23.48C94.3259 24.1733 94.1659 24.88 94.0859 25.6H104.406Z" fill="#E0A52E"/>
<path d="M132.36 40.6C130.413 40.6 128.64 40.28 127.04 39.64C125.44 39 124.067 38.0667 122.92 36.84C121.773 35.6133 120.88 34.1067 120.24 32.32C119.627 30.5067 119.32 28.44 119.32 26.12C119.32 23.8 119.667 21.7467 120.36 19.96C121.08 18.1467 122.04 16.6267 123.24 15.4C124.44 14.1733 125.84 13.24 127.44 12.6C129.04 11.96 130.747 11.64 132.56 11.64C133.707 11.64 134.733 11.72 135.64 11.88C136.573 12.04 137.373 12.2267 138.04 12.44C138.733 12.6533 139.293 12.8667 139.72 13.08C140.147 13.2933 140.44 13.4533 140.6 13.56L139.48 16.76C139.24 16.6 138.893 16.4267 138.44 16.24C137.987 16.0533 137.467 15.8667 136.88 15.68C136.32 15.4933 135.693 15.3467 135 15.24C134.333 15.1067 133.653 15.04 132.96 15.04C131.493 15.04 130.173 15.2933 129 15.8C127.827 16.3067 126.827 17.04 126 18C125.173 18.96 124.533 20.1333 124.08 21.52C123.653 22.88 123.44 24.4133 123.44 26.12C123.44 27.7733 123.627 29.28 124 30.64C124.4 32 124.987 33.1733 125.76 34.16C126.533 35.12 127.493 35.8667 128.64 36.4C129.813 36.9333 131.173 37.2 132.72 37.2C134.507 37.2 135.987 37.0133 137.16 36.64C138.333 36.2667 139.213 35.9333 139.8 35.64L140.8 38.84C140.613 38.9733 140.28 39.1467 139.8 39.36C139.32 39.5467 138.72 39.7333 138 39.92C137.28 40.1067 136.44 40.2667 135.48 40.4C134.52 40.5333 133.48 40.6 132.36 40.6ZM152.045 37.32C152.925 37.32 153.698 37.3067 154.365 37.28C155.058 37.2267 155.631 37.1467 156.085 37.04V30.84C155.818 30.7067 155.378 30.6 154.765 30.52C154.178 30.4133 153.458 30.36 152.605 30.36C152.045 30.36 151.445 30.4 150.805 30.48C150.191 30.56 149.618 30.7333 149.085 31C148.578 31.24 148.151 31.5867 147.805 32.04C147.458 32.4667 147.285 33.04 147.285 33.76C147.285 35.0933 147.711 36.0267 148.565 36.56C149.418 37.0667 150.578 37.32 152.045 37.32ZM151.725 18.68C153.218 18.68 154.471 18.88 155.485 19.28C156.525 19.6533 157.351 20.2 157.965 20.92C158.605 21.6133 159.058 22.4533 159.325 23.44C159.591 24.4 159.725 25.4667 159.725 26.64V39.64C159.405 39.6933 158.951 39.7733 158.365 39.88C157.805 39.96 157.165 40.04 156.445 40.12C155.725 40.2 154.938 40.2667 154.085 40.32C153.258 40.4 152.431 40.44 151.605 40.44C150.431 40.44 149.351 40.32 148.365 40.08C147.378 39.84 146.525 39.4667 145.805 38.96C145.085 38.4267 144.525 37.7333 144.125 36.88C143.725 36.0267 143.525 35 143.525 33.8C143.525 32.6533 143.751 31.6667 144.205 30.84C144.685 30.0133 145.325 29.3467 146.125 28.84C146.925 28.3333 147.858 27.96 148.925 27.72C149.991 27.48 151.111 27.36 152.285 27.36C152.658 27.36 153.045 27.3867 153.445 27.44C153.845 27.4667 154.218 27.52 154.565 27.6C154.938 27.6533 155.258 27.7067 155.525 27.76C155.791 27.8133 155.978 27.8533 156.085 27.88V26.84C156.085 26.2267 156.018 25.6267 155.885 25.04C155.751 24.4267 155.511 23.8933 155.165 23.44C154.818 22.96 154.338 22.5867 153.725 22.32C153.138 22.0267 152.365 21.88 151.405 21.88C150.178 21.88 149.098 21.9733 148.165 22.16C147.258 22.32 146.578 22.4933 146.125 22.68L145.685 19.6C146.165 19.3867 146.965 19.1867 148.085 19C149.205 18.7867 150.418 18.68 151.725 18.68ZM169.383 19.2H177.263V22.32H169.383V31.92C169.383 32.96 169.463 33.8267 169.623 34.52C169.783 35.1867 170.023 35.72 170.343 36.12C170.663 36.4933 171.063 36.76 171.543 36.92C172.023 37.08 172.583 37.16 173.223 37.16C174.343 37.16 175.236 37.04 175.903 36.8C176.596 36.5333 177.076 36.3467 177.343 36.24L178.063 39.32C177.69 39.5067 177.036 39.7333 176.103 40C175.17 40.2933 174.103 40.44 172.903 40.44C171.49 40.44 170.316 40.2667 169.383 39.92C168.476 39.5467 167.743 39 167.183 38.28C166.623 37.56 166.223 36.68 165.983 35.64C165.77 34.5733 165.663 33.3467 165.663 31.96V13.4L169.383 12.76V19.2ZM189.037 37.32C189.917 37.32 190.69 37.3067 191.357 37.28C192.05 37.2267 192.624 37.1467 193.077 37.04V30.84C192.81 30.7067 192.37 30.6 191.757 30.52C191.17 30.4133 190.45 30.36 189.597 30.36C189.037 30.36 188.437 30.4 187.797 30.48C187.184 30.56 186.61 30.7333 186.077 31C185.57 31.24 185.144 31.5867 184.797 32.04C184.45 32.4667 184.277 33.04 184.277 33.76C184.277 35.0933 184.704 36.0267 185.557 36.56C186.41 37.0667 187.57 37.32 189.037 37.32ZM188.717 18.68C190.21 18.68 191.464 18.88 192.477 19.28C193.517 19.6533 194.344 20.2 194.957 20.92C195.597 21.6133 196.05 22.4533 196.317 23.44C196.584 24.4 196.717 25.4667 196.717 26.64V39.64C196.397 39.6933 195.944 39.7733 195.357 39.88C194.797 39.96 194.157 40.04 193.437 40.12C192.717 40.2 191.93 40.2667 191.077 40.32C190.25 40.4 189.424 40.44 188.597 40.44C187.424 40.44 186.344 40.32 185.357 40.08C184.37 39.84 183.517 39.4667 182.797 38.96C182.077 38.4267 181.517 37.7333 181.117 36.88C180.717 36.0267 180.517 35 180.517 33.8C180.517 32.6533 180.744 31.6667 181.197 30.84C181.677 30.0133 182.317 29.3467 183.117 28.84C183.917 28.3333 184.85 27.96 185.917 27.72C186.984 27.48 188.104 27.36 189.277 27.36C189.65 27.36 190.037 27.3867 190.437 27.44C190.837 27.4667 191.21 27.52 191.557 27.6C191.93 27.6533 192.25 27.7067 192.517 27.76C192.784 27.8133 192.97 27.8533 193.077 27.88V26.84C193.077 26.2267 193.01 25.6267 192.877 25.04C192.744 24.4267 192.504 23.8933 192.157 23.44C191.81 22.96 191.33 22.5867 190.717 22.32C190.13 22.0267 189.357 21.88 188.397 21.88C187.17 21.88 186.09 21.9733 185.157 22.16C184.25 22.32 183.57 22.4933 183.117 22.68L182.677 19.6C183.157 19.3867 183.957 19.1867 185.077 19C186.197 18.7867 187.41 18.68 188.717 18.68ZM209.135 40.4C206.842 40.3467 205.215 39.8533 204.255 38.92C203.295 37.9867 202.815 36.5333 202.815 34.56V9.6L206.535 8.96V33.96C206.535 34.5733 206.589 35.08 206.695 35.48C206.802 35.88 206.975 36.2 207.215 36.44C207.455 36.68 207.775 36.8667 208.175 37C208.575 37.1067 209.069 37.2 209.655 37.28L209.135 40.4ZM232.193 29.6C232.193 31.2533 231.953 32.7467 231.473 34.08C230.993 35.4133 230.313 36.56 229.433 37.52C228.579 38.48 227.553 39.2267 226.353 39.76C225.153 40.2667 223.846 40.52 222.433 40.52C221.019 40.52 219.713 40.2667 218.513 39.76C217.313 39.2267 216.273 38.48 215.393 37.52C214.539 36.56 213.873 35.4133 213.393 34.08C212.913 32.7467 212.673 31.2533 212.673 29.6C212.673 27.9733 212.913 26.4933 213.393 25.16C213.873 23.8 214.539 22.64 215.393 21.68C216.273 20.72 217.313 19.9867 218.513 19.48C219.713 18.9467 221.019 18.68 222.433 18.68C223.846 18.68 225.153 18.9467 226.353 19.48C227.553 19.9867 228.579 20.72 229.433 21.68C230.313 22.64 230.993 23.8 231.473 25.16C231.953 26.4933 232.193 27.9733 232.193 29.6ZM228.313 29.6C228.313 27.2533 227.779 25.4 226.713 24.04C225.673 22.6533 224.246 21.96 222.433 21.96C220.619 21.96 219.179 22.6533 218.113 24.04C217.073 25.4 216.553 27.2533 216.553 29.6C216.553 31.9467 217.073 33.8133 218.113 35.2C219.179 36.56 220.619 37.24 222.433 37.24C224.246 37.24 225.673 36.56 226.713 35.2C227.779 33.8133 228.313 31.9467 228.313 29.6ZM250.467 37.92C250.147 38.1333 249.52 38.4133 248.587 38.76C247.68 39.08 246.613 39.24 245.387 39.24C244.133 39.24 242.947 39.04 241.827 38.64C240.733 38.24 239.773 37.6267 238.947 36.8C238.12 35.9467 237.467 34.8933 236.987 33.64C236.507 32.3867 236.267 30.8933 236.267 29.16C236.267 27.64 236.493 26.2533 236.947 25C237.4 23.72 238.053 22.6267 238.907 21.72C239.787 20.7867 240.853 20.0667 242.107 19.56C243.36 19.0267 244.773 18.76 246.347 18.76C248.08 18.76 249.587 18.8933 250.867 19.16C252.173 19.4 253.267 19.6267 254.147 19.84V38.4C254.147 41.6 253.32 43.92 251.667 45.36C250.013 46.8 247.507 47.52 244.147 47.52C242.84 47.52 241.6 47.4133 240.427 47.2C239.28 46.9867 238.28 46.7333 237.427 46.44L238.107 43.2C238.853 43.4933 239.76 43.7467 240.827 43.96C241.92 44.2 243.053 44.32 244.227 44.32C246.44 44.32 248.027 43.88 248.987 43C249.973 42.12 250.467 40.72 250.467 38.8V37.92ZM250.427 22.48C250.053 22.3733 249.547 22.28 248.907 22.2C248.293 22.0933 247.453 22.04 246.387 22.04C244.387 22.04 242.84 22.6933 241.747 24C240.68 25.3067 240.147 27.04 240.147 29.2C240.147 30.4 240.293 31.4267 240.587 32.28C240.907 33.1333 241.32 33.84 241.827 34.4C242.36 34.96 242.96 35.3733 243.627 35.64C244.32 35.9067 245.027 36.04 245.747 36.04C246.733 36.04 247.64 35.9067 248.467 35.64C249.293 35.3467 249.947 35.0133 250.427 34.64V22.48Z" fill="#181818"/>
</svg>
